<svg width="25" height="24" viewBox="0 0 25 24" fill="none" xmlns="http://www.w3.org/2000/svg">
<path d="M12.3 14C12.5833 14 12.821 13.904 13.013 13.712C13.205 13.52 13.3007 13.2827 13.3 13V8C13.3 7.71667 13.204 7.47933 13.012 7.288C12.82 7.09667 12.5827 7.00067 12.3 7C12.0173 6.99933 11.78 7.09533 11.588 7.288C11.396 7.48067 11.3 7.718 11.3 8V13C11.3 13.2833 11.396 13.521 11.588 13.713C11.78 13.905 12.0173 14.0007 12.3 14ZM15.3 12.5C15.5833 12.5 15.821 12.404 16.013 12.212C16.205 12.02 16.3007 11.7827 16.3 11.5V9C16.3 8.71667 16.204 8.47933 16.012 8.288C15.82 8.09667 15.5827 8.00067 15.3 8C15.0173 7.99933 14.78 8.09533 14.588 8.288C14.396 8.48067 14.3 8.718 14.3 9V11.5C14.3 11.7833 14.396 12.021 14.588 12.213C14.78 12.405 15.0173 12.5007 15.3 12.5ZM9.29999 12C9.58332 12 9.82099 11.904 10.013 11.712C10.205 11.52 10.3007 11.2827 10.3 11V9C10.3 8.71667 10.204 8.47933 10.012 8.288C9.81999 8.09667 9.58266 8.00067 9.29999 8C9.01732 7.99933 8.77999 8.09533 8.58799 8.288C8.39599 8.48067 8.29999 8.718 8.29999 9V11C8.29999 11.2833 8.39599 11.521 8.58799 11.713C8.77999 11.905 9.01732 12.0007 9.29999 12ZM6.29999 17.7C5.34999 16.8333 4.61265 15.821 4.08799 14.663C3.56332 13.505 3.30065 12.284 3.29999 11C3.29999 8.5 4.17499 6.375 5.92499 4.625C7.67499 2.875 9.79999 2 12.3 2C14.3833 2 16.2293 2.61267 17.838 3.838C19.4467 5.06333 20.4923 6.659 20.975 8.625L22.275 13.75C22.3583 14.0667 22.3 14.3543 22.1 14.613C21.9 14.8717 21.6333 15.0007 21.3 15H19.3V18C19.3 18.55 19.1043 19.021 18.713 19.413C18.3217 19.805 17.8507 20.0007 17.3 20H15.3V21C15.3 21.2833 15.204 21.521 15.012 21.713C14.82 21.905 14.5827 22.0007 14.3 22C14.0173 21.9993 13.78 21.9033 13.588 21.712C13.396 21.5207 13.3 21.2833 13.3 21V19C13.3 18.7167 13.396 18.4793 13.588 18.288C13.78 18.0967 14.0173 18.0007 14.3 18H17.3V14C17.3 13.7167 17.396 13.4793 17.588 13.288C17.78 13.0967 18.0173 13.0007 18.3 13H20L19.05 9.125C18.6667 7.60833 17.85 6.375 16.6 5.425C15.35 4.475 13.9167 4 12.3 4C10.3667 4 8.71666 4.675 7.34999 6.025C5.98332 7.375 5.29999 9.01667 5.29999 10.95C5.29999 11.95 5.50432 12.9 5.91299 13.8C6.32165 14.7 6.90065 15.5 7.64999 16.2L8.29999 16.8V21C8.29999 21.2833 8.20399 21.521 8.01199 21.713C7.81999 21.905 7.58265 22.0007 7.29999 22C7.01732 21.9993 6.77999 21.9033 6.58799 21.712C6.39599 21.5207 6.29999 21.2833 6.29999 21V17.7Z" fill="#999999"/>
</svg>
