<svg width="28" height="28" viewBox="0 0 28 28" fill="none" xmlns="http://www.w3.org/2000/svg">
<path d="M10.1 18L8.76664 13.2L14.1 10M14.1 10L19.4333 11.6H24.1M14.1 10V21.2M8.76664 26H18.1L19.4333 19.6L24.7666 16.4M22.1 26H26.1M2.09998 24.4C2.09998 24.8243 2.24045 25.2313 2.4905 25.5314C2.74055 25.8314 3.07969 26 3.43331 26C3.78693 26 4.12607 25.8314 4.37612 25.5314C4.62617 25.2313 4.76664 24.8243 4.76664 24.4C4.76664 23.9757 4.62617 23.5687 4.37612 23.2686C4.12607 22.9686 3.78693 22.8 3.43331 22.8C3.07969 22.8 2.74055 22.9686 2.4905 23.2686C2.24045 23.5687 2.09998 23.9757 2.09998 24.4ZM12.7666 3.6C12.7666 4.02435 12.9071 4.43131 13.1572 4.73137C13.4072 5.03143 13.7464 5.2 14.1 5.2C14.4536 5.2 14.7927 5.03143 15.0428 4.73137C15.2928 4.43131 15.4333 4.02435 15.4333 3.6C15.4333 3.17565 15.2928 2.76869 15.0428 2.46863C14.7927 2.16857 14.4536 2 14.1 2C13.7464 2 13.4072 2.16857 13.1572 2.46863C12.9071 2.76869 12.7666 3.17565 12.7666 3.6Z" stroke="#999999" stroke-width="3" stroke-linecap="round" stroke-linejoin="round"/>
</svg>
