<svg width="33" height="24" viewBox="0 0 33 24" fill="none" xmlns="http://www.w3.org/2000/svg">
<path fill-rule="evenodd" clip-rule="evenodd" d="M15.9584 17.2071C15.655 17.2441 15.35 17.2624 15.0448 17.262H10.3V21.4286C10.3 21.4286 9.65515 21.2889 8.69995 20.8946C5.96875 19.7691 0.699951 16.5686 0.699951 8.63143C0.699951 3.86571 4.30635 0 8.75595 0H15.044C18.9256 0 22.1664 2.94171 22.9296 6.85714H26.256C27.9651 6.85737 29.6041 7.58497 30.8126 8.87992C32.0211 10.1749 32.7 11.9311 32.7 13.7623C32.7 20.0014 28.0376 22.5823 25.5 23.5243C24.552 23.8766 23.9 24 23.9 24V20.6666H21.5448C20.4119 20.6673 19.2989 20.3479 18.318 19.7405C17.3372 19.1331 16.5232 18.2593 15.9584 17.2071ZM8.69995 15.5477V19.0406C7.90291 18.6658 7.14465 18.2027 6.43755 17.6589C4.36555 16.0534 2.29995 13.332 2.29995 8.63057C2.30016 6.79618 2.98044 5.037 4.19115 3.73997C5.40187 2.44294 7.04385 1.71429 8.75595 1.71429H15.044C16.6907 1.71431 18.2751 2.38854 19.4732 3.59901C20.6712 4.80948 21.3922 6.4647 21.4888 8.226C21.4856 8.302 21.481 8.37743 21.4752 8.45229C21.3917 9.59885 21.0947 10.7159 20.6019 11.7375C20.109 12.7592 19.4303 13.6648 18.6056 14.4009C17.5501 15.1509 16.3112 15.5499 15.0448 15.5477H8.69995ZM19.56 15.7791C19.0096 16.2631 18.4107 16.6799 17.7744 17.022C18.2283 17.6251 18.8026 18.1115 19.4551 18.4456C20.1076 18.7796 20.8216 18.9528 21.5448 18.9523H25.5V21.696C26.1771 21.41 26.8286 21.0585 27.4464 20.646C29.34 19.3646 31.1 17.2834 31.1 13.7623C31.1 12.3857 30.5896 11.0655 29.6812 10.0921C28.7728 9.11865 27.5407 8.57166 26.256 8.57143H23.1V8.63143C23.1 11.6049 21.696 14.2269 19.56 15.7791Z" fill="#999999"/>
</svg>
