<svg width="25" height="24" viewBox="0 0 25 24" fill="none" xmlns="http://www.w3.org/2000/svg">
<path d="M20.5 10C20.5 9.73481 20.3947 9.48046 20.2071 9.29292C20.0196 9.10539 19.7652 9.00003 19.5 9.00003C19.2348 9.00003 18.9804 9.10539 18.7929 9.29292C18.6054 9.48046 18.5 9.73481 18.5 10H20.5ZM6.50002 10C6.50002 9.73481 6.39466 9.48046 6.20713 9.29292C6.01959 9.10539 5.76524 9.00003 5.50002 9.00003C5.2348 9.00003 4.98045 9.10539 4.79291 9.29292C4.60538 9.48046 4.50002 9.73481 4.50002 10H6.50002ZM20.793 12.707C20.9816 12.8892 21.2342 12.99 21.4964 12.9877C21.7586 12.9854 22.0094 12.8803 22.1948 12.6948C22.3802 12.5094 22.4854 12.2586 22.4877 11.9964C22.49 11.7342 22.3892 11.4816 22.207 11.293L20.793 12.707ZM12.5 3.00003L13.207 2.29303C13.0195 2.10556 12.7652 2.00024 12.5 2.00024C12.2349 2.00024 11.9805 2.10556 11.793 2.29303L12.5 3.00003ZM2.79302 11.293C2.69751 11.3853 2.62133 11.4956 2.56892 11.6176C2.51651 11.7396 2.48892 11.8709 2.48777 12.0036C2.48662 12.1364 2.51192 12.2681 2.5622 12.391C2.61248 12.5139 2.68673 12.6255 2.78063 12.7194C2.87452 12.8133 2.98617 12.8876 3.10907 12.9379C3.23196 12.9881 3.36364 13.0134 3.49642 13.0123C3.6292 13.0111 3.76042 12.9835 3.88242 12.9311C4.00443 12.8787 4.11477 12.8025 4.20702 12.707L2.79302 11.293ZM7.50002 22H17.5V20H7.50002V22ZM20.5 19V10H18.5V19H20.5ZM6.50002 19V10H4.50002V19H6.50002ZM22.207 11.293L13.207 2.29303L11.793 3.70703L20.793 12.707L22.207 11.293ZM11.793 2.29303L2.79302 11.293L4.20702 12.707L13.207 3.70703L11.793 2.29303ZM17.5 22C18.2957 22 19.0587 21.684 19.6213 21.1214C20.184 20.5587 20.5 19.7957 20.5 19H18.5C18.5 19.2652 18.3947 19.5196 18.2071 19.7071C18.0196 19.8947 17.7652 20 17.5 20V22ZM7.50002 20C7.2348 20 6.98045 19.8947 6.79291 19.7071C6.60538 19.5196 6.50002 19.2652 6.50002 19H4.50002C4.50002 19.7957 4.81609 20.5587 5.3787 21.1214C5.94131 21.684 6.70437 22 7.50002 22V20Z" fill="#24DB82"/>
</svg>
