<svg width="25" height="24" viewBox="0 0 25 24" fill="none" xmlns="http://www.w3.org/2000/svg">
<path d="M4.90002 18C4.90002 16.9391 5.32145 15.9217 6.0716 15.1716C6.82174 14.4214 7.83916 14 8.90002 14H16.9C17.9609 14 18.9783 14.4214 19.7285 15.1716C20.4786 15.9217 20.9 16.9391 20.9 18C20.9 18.5304 20.6893 19.0391 20.3142 19.4142C19.9392 19.7893 19.4305 20 18.9 20H6.90002C6.36959 20 5.86088 19.7893 5.48581 19.4142C5.11074 19.0391 4.90002 18.5304 4.90002 18Z" stroke="#999999" stroke-width="2" stroke-linejoin="round"/>
<path d="M12.9 10C14.5569 10 15.9 8.65685 15.9 7C15.9 5.34315 14.5569 4 12.9 4C11.2432 4 9.90002 5.34315 9.90002 7C9.90002 8.65685 11.2432 10 12.9 10Z" stroke="#999999" stroke-width="2"/>
</svg>
