<svg width="26" height="26" viewBox="0 0 26 26" fill="none" xmlns="http://www.w3.org/2000/svg">
<g filter="url(#filter0_d_22_179)">
<path d="M16 23.7103C12.1517 23.7103 8 21.2965 8 16C8 10.7034 12.1517 8.28966 16 8.28966C18.1379 8.28966 20.1103 8.99311 21.5724 10.2759C23.1586 11.6828 24 13.669 24 16C24 18.331 23.1586 20.3034 21.5724 21.7103C20.1103 22.9931 18.1241 23.7103 16 23.7103Z" fill="url(#paint0_radial_22_179)"/>
<path d="M22.6055 11.4165C23.3407 12.6027 23.7241 14.0152 23.7241 15.5862C23.7241 17.9172 22.8827 19.8896 21.2965 21.2965C19.8345 22.5793 17.8483 23.2965 15.7241 23.2965C13.2331 23.2965 10.6207 22.2827 9.07861 20.1324C10.5628 22.5683 13.3545 23.7103 16 23.7103C18.1241 23.7103 20.1103 22.9931 21.5724 21.7103C23.1586 20.3034 24 18.331 24 16C24 14.2427 23.5214 12.6814 22.6055 11.4165Z" fill="#EB8F00"/>
<path d="M20.4579 9.68686L19.3461 11.1627C19.291 11.2344 19.2055 11.2758 19.1144 11.2717L17.2689 11.1931C17.1172 11.1862 16.9875 11.3048 16.9806 11.4565C16.9779 11.5172 16.9958 11.5765 17.0303 11.6262L18.091 13.1434C18.142 13.2165 18.1544 13.3089 18.1241 13.3931L17.4786 15.1255C17.4261 15.2689 17.4992 15.4275 17.6413 15.48C17.6979 15.5006 17.7586 15.502 17.8165 15.4855L19.5834 14.9448C19.6703 14.9186 19.7641 14.9365 19.8358 14.9931L21.2827 16.142C21.4027 16.2358 21.5751 16.2165 21.6703 16.0965C21.7075 16.0482 21.7282 15.9903 21.7296 15.9296L21.7613 14.0827C21.7627 13.9917 21.8096 13.9075 21.8855 13.8579L23.4248 12.8413C23.5517 12.7572 23.5875 12.5862 23.5034 12.4593C23.4703 12.4082 23.4206 12.3696 23.3627 12.3503L21.6151 11.7489C21.5268 11.72 21.4592 11.6482 21.4344 11.5586L20.9434 9.77789C20.902 9.63168 20.7489 9.54617 20.6027 9.58754C20.5448 9.6041 20.4937 9.63858 20.4579 9.68686Z" fill="url(#paint1_radial_22_179)"/>
<path d="M20.9944 9.65384L21.4082 11.5738C21.44 11.7214 21.5489 11.84 21.6937 11.8828L23.5393 12.4345C23.6772 12.4842 23.7489 12.6359 23.6993 12.7738C23.68 12.829 23.6427 12.8745 23.5931 12.9063L21.9379 13.8056C21.7986 13.8759 21.7103 14.0194 21.7103 14.1752L21.7269 16.1876C21.7227 16.3325 21.6013 16.4469 21.4551 16.4428C21.3972 16.4414 21.3406 16.4207 21.2965 16.3835L19.851 15.0856C19.7393 14.9835 19.5806 14.9518 19.4372 15.0014L17.6027 15.6263C17.462 15.6663 17.3158 15.5849 17.2744 15.4442C17.2579 15.389 17.2606 15.3297 17.2827 15.2759L18.091 13.4318C18.1517 13.2911 18.131 13.1297 18.0358 13.0097L16.862 11.5297C16.7806 11.4069 16.8137 11.2428 16.9351 11.16C16.982 11.1283 17.0386 11.1131 17.0965 11.1159L19.0124 11.3338C19.1627 11.3504 19.3089 11.2842 19.3958 11.1614L20.5296 9.55867C20.6193 9.44281 20.7862 9.42212 20.9006 9.51315C20.9475 9.54901 20.9793 9.59729 20.9944 9.65384Z" fill="#F44336"/>
<path d="M20.556 11.509L20.6939 10.1848C20.7035 10.1117 20.7146 9.98482 20.8318 10.0083C20.9242 10.0276 20.9339 10.2276 20.9339 10.2276L21.1132 11.3503C21.1794 11.7765 21.0911 11.9021 20.9311 11.9517C20.7449 12.0138 20.5173 11.8883 20.556 11.509Z" fill="#FF847A"/>
<path d="M21.8001 13.669L23.1063 13.0221C23.1711 12.9862 23.287 12.9324 23.2249 12.8317C23.1739 12.7531 22.9822 12.8124 22.9822 12.8124L21.9187 12.9959C21.6042 13.0372 21.378 13.1476 21.3215 13.3338C21.2484 13.5738 21.4346 13.8152 21.8001 13.669Z" fill="#C62828"/>
<path d="M11.7103 9.32412L12.8138 10.9434C12.8993 11.0676 13.0441 11.1352 13.1944 11.1214L15.1144 10.9324C15.2606 10.9283 15.3834 11.0427 15.3875 11.1889C15.3889 11.2455 15.3738 11.3007 15.342 11.3462L14.1517 12.8124C14.0551 12.931 14.0317 13.0924 14.091 13.2331L14.8703 15.0883C14.9213 15.2248 14.8524 15.3779 14.7158 15.4289C14.6606 15.4496 14.6013 15.451 14.5448 15.4345L12.7144 14.7821C12.5724 14.731 12.4138 14.76 12.3006 14.8593L10.8413 16.1352C10.7282 16.2262 10.5627 16.2083 10.4703 16.0952C10.4331 16.0496 10.4124 15.9917 10.4124 15.9338L10.4579 13.9214C10.462 13.7683 10.3806 13.6276 10.2482 13.5517L8.60686 12.6276C8.48272 12.5531 8.44134 12.3903 8.5172 12.2662C8.54893 12.2124 8.59996 12.171 8.65927 12.1517L10.5144 11.6248C10.6579 11.5848 10.7682 11.4689 10.8041 11.3241L11.2441 9.41102C11.2841 9.27033 11.4303 9.18895 11.571 9.22895C11.6262 9.24412 11.6758 9.2786 11.7103 9.32412Z" fill="#F44336"/>
<path d="M12.0083 11.2069L11.6303 9.92969C11.6124 9.85796 11.5738 9.73658 11.6896 9.71451C11.782 9.69658 11.8689 9.87865 11.8689 9.87865L12.4593 10.8442C12.6841 11.2138 12.6483 11.3614 12.52 11.469C12.3917 11.5766 12.1158 11.5724 12.0083 11.2069Z" fill="#FF847A"/>
<path d="M13.978 12.7255L14.9435 11.6304C14.9904 11.5738 15.0814 11.48 14.9793 11.411C14.9035 11.3559 14.749 11.4841 14.749 11.4841L13.8345 12.0579C13.5586 12.2152 13.3917 12.4028 13.4111 12.5973C13.4345 12.8538 13.6966 13.0055 13.978 12.7255Z" fill="#C62828"/>
<path d="M21.3062 17.2027C21.1131 16.8538 20.6938 16.7007 20.3214 16.8414C18.9062 17.2538 17.4386 17.4593 15.9641 17.4524C14.4896 17.4593 13.022 17.2538 11.6069 16.8414C11.2358 16.7007 10.8165 16.8524 10.6234 17.2C10.4358 17.5462 10.571 17.9476 10.7296 18.2938C11.6151 20.2386 13.5669 21.4027 15.9531 21.4096H15.9751C18.3614 21.4096 20.3131 20.2386 21.2 18.2938C21.3572 17.9448 21.4938 17.5489 21.3062 17.2027Z" fill="#422B0D"/>
<path d="M18.1725 20.8607C18.1215 20.8138 18.069 20.771 18.0166 20.7228C17.4539 20.2276 16.7256 19.9614 15.9752 19.9766C15.2028 19.9642 14.4511 20.2207 13.8483 20.7035C13.7959 20.7462 13.7408 20.7876 13.6897 20.8414C13.6387 20.8952 13.6111 20.9338 13.578 20.9793C14.3366 21.2759 15.1449 21.4276 15.9601 21.4235H15.9821C16.7628 21.4235 17.5366 21.2842 18.2677 21.0097C18.2401 20.9573 18.2083 20.9076 18.1725 20.8607Z" fill="#ED7770"/>
<path d="M20.3214 16.8414C18.9063 17.2538 17.4387 17.4593 15.9642 17.4524C14.4897 17.4593 13.0221 17.2538 11.607 16.8414C11.2359 16.7007 10.8166 16.8524 10.6235 17.2C10.5959 17.2524 10.5739 17.3076 10.5601 17.3641C10.6056 17.3876 10.658 17.411 10.7201 17.4359C12.3807 18.2676 14.2166 18.6897 16.0732 18.6676C17.8539 18.6883 19.6139 18.3007 21.2221 17.5366C21.287 17.509 21.3407 17.4828 21.389 17.4579C21.378 17.3683 21.349 17.28 21.3063 17.2C21.1132 16.8524 20.6939 16.6993 20.3214 16.8414Z" fill="#BEBCBC"/>
<path d="M21.3117 17.2041C21.1158 16.8551 20.6951 16.7007 20.32 16.8414C18.9048 17.2538 17.4372 17.4593 15.9641 17.4524C14.4896 17.4593 13.022 17.2538 11.6069 16.8414C11.2358 16.7007 10.8165 16.8524 10.6234 17.2C10.4358 17.5462 10.571 17.9476 10.7296 18.2938C10.8 18.4496 10.8786 18.6027 10.9655 18.7503C10.9655 18.7503 10.6758 17.6772 10.9269 17.3655C11.0124 17.2331 11.1558 17.1503 11.3131 17.142C11.3779 17.142 11.4414 17.1531 11.5034 17.1724C12.9434 17.5958 14.4372 17.8096 15.9393 17.8069H15.9876C17.4896 17.8096 18.9834 17.5958 20.4234 17.1724C20.4855 17.1531 20.5489 17.142 20.6138 17.142C20.771 17.1503 20.9158 17.2331 21.0014 17.3655C21.2565 17.6772 20.9627 18.7545 20.9627 18.7545C21.0482 18.6069 21.1338 18.4551 21.2055 18.2979C21.3627 17.9517 21.4993 17.5517 21.3117 17.2041Z" fill="#EB8F00"/>
</g>
<defs>
<radialGradient id="paint0_radial_22_179" cx="0" cy="0" r="1" gradientUnits="userSpaceOnUse" gradientTransform="translate(16 16) scale(7.85651 7.85651)">
<stop offset="0.5" stop-color="#FDE030"/>
<stop offset="0.92" stop-color="#F7C02B"/>
<stop offset="1" stop-color="#F4A223"/>
</radialGradient>
<radialGradient id="paint1_radial_22_179" cx="0" cy="0" r="1" gradientUnits="userSpaceOnUse" gradientTransform="translate(20.2648 12.8893) scale(3.29806 3.29805)">
<stop offset="0.2" stop-color="#FF4081"/>
<stop offset="0.88" stop-color="#CC1775"/>
</radialGradient>
</defs>
</svg>
