<svg width="26" height="26" viewBox="0 0 26 26" fill="none" xmlns="http://www.w3.org/2000/svg">
<g filter="url(#filter0_d_22_164)">
<path d="M13 20.7103C9.15172 20.7103 5 18.2965 5 13C5 7.70345 9.15172 5.28966 13 5.28966C15.1379 5.28966 17.1103 5.99311 18.5724 7.27586C20.1586 8.68276 21 10.669 21 13C21 15.331 20.1586 17.3034 18.5724 18.7103C17.1103 19.9931 15.1241 20.7103 13 20.7103Z" fill="url(#paint0_radial_22_164)"/>
<path d="M19.6055 8.41653C20.3407 9.60274 20.7241 11.0152 20.7241 12.5862C20.7241 14.9172 19.8827 16.8896 18.2965 18.2965C16.8345 19.5793 14.8483 20.2965 12.7241 20.2965C10.2331 20.2965 7.62068 19.2827 6.07861 17.1324C7.56275 19.5683 10.3545 20.7103 13 20.7103C15.1241 20.7103 17.1103 19.9931 18.5724 18.7103C20.1586 17.3034 21 15.331 21 13C21 11.2427 20.5214 9.68136 19.6055 8.41653Z" fill="#EB8F00"/>
<path d="M10.2966 9.97102C9.71863 9.97102 9.19312 10.4593 9.19312 11.2703C9.19312 12.0814 9.71863 12.5683 10.2966 12.5683C10.8759 12.5683 11.4 12.08 11.4 11.2703C11.4 10.4607 10.8814 9.97102 10.2966 9.97102Z" fill="#422B0D"/>
<path d="M10.2483 10.5131C10.0524 10.4193 9.81654 10.5021 9.72136 10.6979C9.64826 10.851 9.68136 11.0345 9.80412 11.1531C9.99998 11.2469 10.2358 11.1641 10.331 10.9683C10.4041 10.8152 10.371 10.6317 10.2483 10.5131Z" fill="#896024"/>
<path d="M15.5931 9.97102C15.0151 9.97102 14.4896 10.4593 14.4896 11.2703C14.4896 12.0814 15.0151 12.5683 15.5931 12.5683C16.171 12.5683 16.6965 12.08 16.6965 11.2703C16.6965 10.4607 16.171 9.97102 15.5931 9.97102Z" fill="#422B0D"/>
<path d="M15.5379 10.5131C15.3421 10.4193 15.1062 10.5021 15.011 10.6979C14.9379 10.851 14.971 11.0345 15.0938 11.1531C15.2897 11.2469 15.5255 11.1641 15.6207 10.9683C15.6938 10.8152 15.6607 10.6317 15.5379 10.5131Z" fill="#896024"/>
<path d="M13.08 15.1089C14.331 15.0979 15.5282 15.6248 16.3655 16.5545C16.4289 16.6276 16.4441 16.731 16.4041 16.8193C16.3641 16.9089 16.2758 16.9669 16.1779 16.9682C16.1338 16.9682 16.0896 16.9558 16.051 16.9338C15.3862 16.5517 14.2745 16.0772 13.0827 16.0772H13.0634C11.8731 16.0772 10.76 16.5517 10.0965 16.9338C10.0579 16.9558 10.0138 16.9682 9.96963 16.9682C9.8717 16.9669 9.7848 16.9089 9.7448 16.8193C9.70342 16.731 9.71859 16.6276 9.78342 16.5545C10.6207 15.6248 11.8165 15.0979 13.0676 15.1089" fill="#422B0D"/>
</g>
<defs>
<radialGradient id="paint0_radial_22_164" cx="0" cy="0" r="1" gradientUnits="userSpaceOnUse" gradientTransform="translate(13 13) scale(7.85651 7.85651)">
<stop offset="0.5" stop-color="#FDE030"/>
<stop offset="0.92" stop-color="#F7C02B"/>
<stop offset="1" stop-color="#F4A223"/>
</radialGradient>
</defs>
</svg>
