<svg width="26" height="26" viewBox="0 0 26 26" fill="none" xmlns="http://www.w3.org/2000/svg">
<g filter="url(#filter0_d_22_188)">
<path d="M15.5 22.7103C11.6517 22.7103 7.5 20.2965 7.5 15C7.5 9.70345 11.6517 7.28966 15.5 7.28966C17.6379 7.28966 19.6103 7.99311 21.0724 9.27586C22.6586 10.6828 23.5 12.669 23.5 15C23.5 17.331 22.6586 19.3034 21.0724 20.7103C19.6103 21.9931 17.6241 22.7103 15.5 22.7103Z" fill="url(#paint0_radial_22_188)"/>
<path d="M12.7965 11.971C12.2186 11.971 11.6931 12.4593 11.6931 13.2703C11.6931 14.0814 12.2186 14.5683 12.7965 14.5683C13.3758 14.5683 13.9 14.08 13.9 13.2703C13.9 12.4607 13.3813 11.971 12.7965 11.971Z" fill="#422B0D"/>
<path d="M12.7483 12.5131C12.5524 12.4193 12.3165 12.5021 12.2214 12.6979C12.1483 12.851 12.1814 13.0345 12.3041 13.1531C12.5 13.2469 12.7358 13.1641 12.831 12.9683C12.9041 12.8152 12.871 12.6317 12.7483 12.5131Z" fill="#896024"/>
<path d="M18.0931 11.971C17.5151 11.971 16.9896 12.4593 16.9896 13.2703C16.9896 14.0814 17.5151 14.5683 18.0931 14.5683C18.671 14.5683 19.1965 14.08 19.1965 13.2703C19.1965 12.4607 18.671 11.971 18.0931 11.971Z" fill="#422B0D"/>
<path d="M18.0379 12.5131C17.8421 12.4193 17.6062 12.5021 17.511 12.6979C17.4379 12.851 17.471 13.0345 17.5938 13.1531C17.7897 13.2469 18.0255 13.1641 18.1207 12.9683C18.1938 12.8152 18.1607 12.6317 18.0379 12.5131Z" fill="#896024"/>
<path d="M15.4172 18.96C14.1662 18.9697 12.9717 18.4441 12.1344 17.5145C12.071 17.4414 12.0558 17.3379 12.0958 17.2497C12.1358 17.16 12.2241 17.1021 12.322 17.1007C12.3662 17.1007 12.4103 17.1131 12.4489 17.1352C13.1138 17.5172 14.2255 17.9917 15.4172 17.9917H15.4365C16.6269 17.9917 17.74 17.5172 18.4034 17.1352C18.442 17.1131 18.4862 17.1007 18.5303 17.1007C18.6282 17.1021 18.7165 17.16 18.7565 17.2497C18.7979 17.3379 18.7827 17.4414 18.7179 17.5145C17.8806 18.4441 16.6834 18.971 15.4324 18.96" fill="#422B0D"/>
<path d="M22.1055 10.4165C22.8407 11.6027 23.2241 13.0152 23.2241 14.5862C23.2241 16.9172 22.3827 18.8896 20.7965 20.2965C19.3345 21.5793 17.3483 22.2965 15.2241 22.2965C12.7331 22.2965 10.1207 21.2827 8.57861 19.1324C10.0628 21.5683 12.8545 22.7103 15.5 22.7103C17.6241 22.7103 19.6103 21.9931 21.0724 20.7103C22.6586 19.3034 23.5 17.331 23.5 15C23.5 13.2427 23.0214 11.6814 22.1055 10.4165Z" fill="#EB8F00"/>
</g>
<defs>
<radialGradient id="paint0_radial_22_188" cx="0" cy="0" r="1" gradientUnits="userSpaceOnUse" gradientTransform="translate(15.5 15) scale(7.85651 7.85651)">
<stop offset="0.5" stop-color="#FDE030"/>
<stop offset="0.92" stop-color="#F7C02B"/>
<stop offset="1" stop-color="#F4A223"/>
</radialGradient>
</defs>
</svg>
