<svg width="16" height="16" viewBox="0 0 16 16" fill="none" xmlns="http://www.w3.org/2000/svg">
<path d="M5.33331 4.54667V11.4533C5.33331 11.98 5.91331 12.3 6.35998 12.0133L11.7866 8.56001C11.8817 8.49988 11.9599 8.4167 12.0141 8.31821C12.0684 8.21972 12.0968 8.10911 12.0968 7.99667C12.0968 7.88424 12.0684 7.77363 12.0141 7.67514C11.9599 7.57664 11.8817 7.49347 11.7866 7.43334L6.35998 3.98667C6.25943 3.92164 6.14318 3.88495 6.02351 3.88047C5.90384 3.87599 5.78518 3.9039 5.68005 3.96125C5.57492 4.01859 5.48721 4.10325 5.42619 4.20628C5.36516 4.30932 5.33307 4.42692 5.33331 4.54667Z" fill="#24DB82"/>
</svg>
