<svg width="16" height="16" viewBox="0 0 16 16" fill="none" xmlns="http://www.w3.org/2000/svg">
<path d="M8.00002 14C8.78795 14 9.56817 13.8448 10.2961 13.5433C11.0241 13.2417 11.6855 12.7998 12.2427 12.2426C12.7998 11.6855 13.2418 11.024 13.5433 10.2961C13.8448 9.56814 14 8.78792 14 7.99999C14 7.21206 13.8448 6.43184 13.5433 5.70389C13.2418 4.97594 12.7998 4.3145 12.2427 3.75735C11.6855 3.2002 11.0241 2.75824 10.2961 2.45671C9.56817 2.15518 8.78795 1.99999 8.00002 1.99999C6.40872 1.99999 4.8826 2.63213 3.75738 3.75735C2.63216 4.88257 2.00002 6.40869 2.00002 7.99999C2.00002 9.59129 2.63216 11.1174 3.75738 12.2426C4.8826 13.3678 6.40872 14 8.00002 14ZM15.3334 7.99999C15.3334 12.05 12.05 15.3333 8.00002 15.3333C3.95002 15.3333 0.666687 12.05 0.666687 7.99999C0.666687 3.94999 3.95002 0.666656 8.00002 0.666656C12.05 0.666656 15.3334 3.94999 15.3334 7.99999ZM10 10.9427L7.33335 8.27599V3.66666H8.66669V7.72399L10.9427 9.99999L10 10.9427Z" fill="black"/>
</svg>
