<svg width="13" height="13" viewBox="0 0 13 13" fill="none" xmlns="http://www.w3.org/2000/svg">
<path d="M7.80866 5.52474C7.59879 5.3148 7.34961 5.14826 7.07536 5.03464C6.80112 4.92101 6.50717 4.86253 6.21032 4.86253C5.91347 4.86253 5.61953 4.92101 5.34528 5.03464C5.07103 5.14826 4.82186 5.3148 4.61199 5.52474L2.32866 7.80874C1.90484 8.23265 1.66678 8.80755 1.66684 9.40698C1.6669 10.0064 1.90508 10.5813 2.32899 11.0051C2.75289 11.4289 3.3278 11.667 3.92722 11.6669C4.52665 11.6668 5.10151 11.4286 5.52532 11.0047L5.73932 10.8021M5.52532 7.80874C5.73519 8.01868 5.98437 8.18522 6.25861 8.29885C6.53286 8.41247 6.8268 8.47095 7.12366 8.47095C7.42051 8.47095 7.71445 8.41247 7.9887 8.29885C8.26294 8.18522 8.51212 8.01868 8.72199 7.80874L11.0047 5.52474C11.4286 5.10093 11.6667 4.52607 11.6668 3.92664C11.6669 3.32722 11.4288 2.75231 11.005 2.32841C10.5812 1.9045 10.0063 1.66632 9.40689 1.66626C8.80746 1.6662 8.23256 1.90426 7.80866 2.32808L7.12332 2.96874" stroke="#4D4D4D" stroke-width="2" stroke-linecap="round" stroke-linejoin="round"/>
</svg>
