<svg width="18" height="14" viewBox="0 0 18 14" fill="none" xmlns="http://www.w3.org/2000/svg">
<path d="M11.0294 1.23488H6.97039C6.47971 1.23468 5.9938 1.33117 5.54043 1.51883C5.08706 1.70649 4.6751 1.98165 4.32811 2.32857C3.98111 2.6755 3.70588 3.0874 3.51813 3.54073C3.33037 3.99407 3.23379 4.47995 3.23389 4.97063V9.02963C3.23369 9.52037 3.3302 10.0063 3.51791 10.4598C3.70562 10.9132 3.98084 11.3252 4.32784 11.6722C4.67485 12.0192 5.08684 12.2944 5.54026 12.4821C5.99368 12.6698 6.47965 12.7663 6.97039 12.7661H11.0294C11.5201 12.7663 12.0061 12.6698 12.4595 12.4821C12.9129 12.2944 13.3249 12.0192 13.6719 11.6722C14.0189 11.3252 14.2942 10.9132 14.4819 10.4598C14.6696 10.0063 14.7661 9.52037 14.7659 9.02963V4.97063C14.7661 4.47989 14.6696 3.99392 14.4819 3.5405C14.2942 3.08708 14.0189 2.67509 13.6719 2.32809C13.3249 1.98108 12.9129 1.70586 12.4595 1.51815C12.0061 1.33045 11.5201 1.23393 11.0294 1.23413V1.23488Z" stroke="black" stroke-width="1.5"/>
<path d="M14.7045 9.69106H15.9188C16.1226 9.69106 16.3182 9.61007 16.4623 9.4659C16.6065 9.32173 16.6875 9.1262 16.6875 8.92231V5.07856C16.6875 4.87468 16.6065 4.67914 16.4623 4.53498C16.3182 4.39081 16.1226 4.30981 15.9188 4.30981H14.7038M3.29625 9.69106H2.08125C1.9803 9.69106 1.88033 9.67118 1.78706 9.63255C1.69379 9.59391 1.60905 9.53729 1.53766 9.4659C1.46628 9.39452 1.40965 9.30977 1.37102 9.2165C1.33238 9.12323 1.3125 9.02327 1.3125 8.92231V5.07856C1.3125 4.87468 1.39349 4.67914 1.53766 4.53498C1.68183 4.39081 1.87736 4.30981 2.08125 4.30981H3.29625" stroke="black" stroke-width="1.5"/>
<path d="M2.07373 3.89653V0.821533M15.9187 3.89653L15.9112 0.821533M10.5375 4.86478C10.5375 6.58678 12.69 6.58678 12.69 4.86478M5.15623 4.86478C5.15623 6.58678 7.30873 6.58678 7.30873 4.86478M7.06273 8.98528C7.06273 10.2768 8.99998 9.96178 8.99998 9.27778C8.99998 9.96178 10.9372 10.2768 10.9372 8.98528" stroke="black" stroke-width="1.5" stroke-linecap="round" stroke-linejoin="round"/>
</svg>
