<?xml version="1.0" encoding="utf-8"?>
<!-- Generator: Adobe Illustrator 16.0.0, SVG Export Plug-In . SVG Version: 6.00 Build 0)  -->
<!DOCTYPE svg PUBLIC "-//W3C//DTD SVG 1.1//EN" "http://www.w3.org/Graphics/SVG/1.1/DTD/svg11.dtd">
<svg version="1.1" id="Duck_1_" xmlns="http://www.w3.org/2000/svg" xmlns:xlink="http://www.w3.org/1999/xlink" x="0px" y="0px"
	 width="512px" height="512px" viewBox="0 0 512 512" enable-background="new 0 0 512 512" xml:space="preserve">
<circle id="Background_33_" fill="#1BA555" cx="256" cy="256" r="256"/>
<path id="Shadow" opacity="0.1" d="M510.471,283.989L396.615,170.133h-6.649v-4.307l-39.157-39.158h-39.508v132.09L115.41,313.541
	l15.721,15.721l-14.443,2.119l177.746,177.747C408.507,491.952,497.907,399.509,510.471,283.989z"/>
<g id="Duck">
	<path fill="#E5592D" d="M289.942,386.33c-2.562,0-34.761-3.537-34.029-6.099c0.732-2.561,0-6.708-2.561-10.366
		c-2.562-3.659-5.267-23.784-5.267-23.784l-11.931,3.659c0,0,11.343,21.954,8.05,27.442c-3.293,5.489-5.389,12.16,0.178,13.782
		c7.733,2.255,37.144,0.244,45.56,0.244C298.357,391.209,292.504,386.33,289.942,386.33z"/>
	<path opacity="0.1" d="M289.942,386.33c-2.562,0-34.761-3.537-34.029-6.099c0.732-2.561,0-6.708-2.561-10.366
		c-2.562-3.659-5.267-23.784-5.267-23.784l-11.931,3.659c0,0,11.343,21.954,8.05,27.442c-3.293,5.489-5.389,12.16,0.178,13.782
		c7.733,2.255,37.144,0.244,45.56,0.244C298.357,391.209,292.504,386.33,289.942,386.33z"/>
	<path fill="#E5592D" d="M329.077,388.454c-2.876,0-39.033-3.973-38.212-6.849c0.822-2.876,0-7.532-2.876-11.642
		c-2.876-4.108-5.914-26.707-5.914-26.707l-13.397,4.108c0,0,12.737,24.653,9.039,30.816s-6.052,13.654,0.2,15.477
		c8.684,2.531,41.71,0.274,51.16,0.274C338.528,393.933,331.954,388.454,329.077,388.454z"/>
	<path opacity="0.1" d="M268.678,347.365c0,0,1.139,2.205,2.637,5.459c4.278-0.694,8.212-1.486,11.847-2.364
		c-0.67-4.107-1.086-7.203-1.086-7.203L268.678,347.365z"/>
	<path fill="#FACF1A" d="M308.936,120.447c12.572-7.559,36.862-1.28,45.566,9.983c8.703,11.264,13.055,25.599,3.071,33.791
		c-9.983,8.192-29.521,0.254-25.128,21.886s23.592,32.383,32.04,62.59c8.447,30.207-10.497,54.413-27.774,67.837
		c-17.278,13.425-28.287,27.391-67.965,33.278c-39.679,5.888-61.694-5.376-69.374-6.912c-7.68-1.535-50.173-3.071-61.437-8.959
		c0,0-14.847,2.815-21.247-2.561c-6.4-5.375,13.312-11.52,13.312-11.52s-14.07-2.75-14.59-6.32
		c-0.52-3.571,7.005-10.668,19.454-17.23c0,0,74.749-67.069,115.195-74.748c40.446-7.68,40.446,10.239,43.518-3.072
		C296.648,205.179,268.489,144.766,308.936,120.447z"/>
	<path opacity="0.1" d="M329.539,309.312c-21.873,13.425-19.31,29.267-86.041,35.327c-15.639,1.42-29.036-0.047-40.447-0.721
		c9.951,3.13,31.113,11.025,65.695,5.895c39.678-5.888,50.687-19.854,67.965-33.278c14.19-11.026,29.501-29.325,29.841-52.248
		C362.743,283.833,345.575,299.47,329.539,309.312z"/>
	<path fill="#F5921E" d="M350.15,154.493c2.309-2.309,9.752-6.715,12.684-7.197s11.123,13.341,23.922,16.925
		c12.8,3.584,14.336,10.24-2.56,9.216s-27.465-4.767-30.95-6.731C349.761,164.742,347.841,156.802,350.15,154.493z"/>
	<path opacity="0.1" d="M384.196,170.108c-16.896-1.024-27.465-4.767-30.95-6.73c-9.581,3.828-22.513,1.083-21.36,15.558
		c1.019-10.728,12.592-8.727,21.36-12.23c3.485,1.964,14.055,5.707,30.95,6.731c10.998,0.667,14.184-1.921,11.539-4.797
		C394.164,169.816,390.44,170.487,384.196,170.108z"/>
	<path opacity="0.1" d="M345.415,141.694c0,3.216-2.607,5.824-5.823,5.824c-3.217,0-6.552-2.607-6.552-5.824
		s3.335-5.823,6.552-5.823C342.808,135.871,345.415,138.478,345.415,141.694z"/>
	<path fill="#231F20" d="M344.444,141.694c0,2.68-2.173,4.853-4.853,4.853c-2.681,0-5.217-2.173-5.217-4.853
		s2.536-4.853,5.217-4.853C342.271,136.841,344.444,139.014,344.444,141.694z"/>
	<path opacity="0.1" d="M284.802,276.474c-8.803,6.355-44.389,25.587-66.315,29.564c-21.926,3.979-24.328,3.479,1.264-2.303
		C245.342,297.953,293.604,270.118,284.802,276.474z"/>
</g>
</svg>
